<svg width="22" height="31" viewBox="0 0 22 31" fill="none" xmlns="http://www.w3.org/2000/svg">
<path d="M3.75 15.2501L8 14.2501L17.2929 4.9572C17.6834 4.56667 17.6834 3.93351 17.2929 3.54298L15.4571 1.7072C15.0666 1.31667 14.4334 1.31667 14.0429 1.7072L4.75 11.0001L3.75 15.2501Z" stroke="#747488" stroke-width="1.5" stroke-linecap="round" stroke-linejoin="round"/>
<path d="M18.25 15.25H12.75" stroke="#747488" stroke-width="1.5" stroke-linecap="round" stroke-linejoin="round"/>
<path d="M1.064 28C0.936 28 0.834667 27.9653 0.76 27.896C0.690667 27.8213 0.656 27.7227 0.656 27.6V22.76C0.656 22.6373 0.690667 22.5413 0.76 22.472C0.834667 22.3973 0.936 22.36 1.064 22.36H4.008C4.13067 22.36 4.224 22.3893 4.288 22.448C4.35733 22.5067 4.392 22.5893 4.392 22.696C4.392 22.8027 4.35733 22.8853 4.288 22.944C4.224 22.9973 4.13067 23.024 4.008 23.024H1.464V24.8H3.848C3.97067 24.8 4.064 24.8293 4.128 24.888C4.19733 24.9467 4.232 25.0293 4.232 25.136C4.232 25.2427 4.19733 25.3253 4.128 25.384C4.064 25.4427 3.97067 25.472 3.848 25.472H1.464V27.336H4.008C4.264 27.336 4.392 27.4453 4.392 27.664C4.392 27.7707 4.35733 27.8533 4.288 27.912C4.224 27.9707 4.13067 28 4.008 28H1.064ZM8.43169 22.32C8.55435 22.32 8.65302 22.3547 8.72769 22.424C8.80235 22.4933 8.83969 22.5867 8.83969 22.704V27.648C8.83969 27.7707 8.80235 27.8667 8.72769 27.936C8.65835 28.0053 8.56235 28.04 8.43969 28.04C8.31702 28.04 8.21835 28.0053 8.14369 27.936C8.07435 27.8667 8.03969 27.7707 8.03969 27.648V27.328C7.92235 27.5627 7.75169 27.744 7.52769 27.872C7.30369 27.9947 7.04502 28.056 6.75169 28.056C6.41569 28.056 6.11435 27.9707 5.84769 27.8C5.58635 27.6293 5.38102 27.3893 5.23169 27.08C5.08769 26.7707 5.01569 26.416 5.01569 26.016C5.01569 25.6107 5.08769 25.256 5.23169 24.952C5.38102 24.648 5.58635 24.4133 5.84769 24.248C6.10902 24.0827 6.41035 24 6.75169 24C7.04502 24 7.30102 24.064 7.51969 24.192C7.74369 24.3147 7.91435 24.4907 8.03169 24.72V22.688C8.03169 22.576 8.06635 22.488 8.13569 22.424C8.21035 22.3547 8.30902 22.32 8.43169 22.32ZM6.94369 27.416C7.29035 27.416 7.55969 27.296 7.75169 27.056C7.94369 26.816 8.03969 26.4747 8.03969 26.032C8.03969 25.5893 7.94369 25.248 7.75169 25.008C7.56502 24.768 7.29569 24.648 6.94369 24.648C6.59169 24.648 6.31702 24.768 6.11969 25.008C5.92769 25.2427 5.83169 25.5787 5.83169 26.016C5.83169 26.4533 5.93035 26.7973 6.12769 27.048C6.32502 27.2933 6.59702 27.416 6.94369 27.416ZM10.3743 28.04C10.2569 28.04 10.1583 28.008 10.0783 27.944C10.0036 27.88 9.96625 27.784 9.96625 27.656V24.408C9.96625 24.28 10.0036 24.184 10.0783 24.12C10.1583 24.0507 10.2569 24.016 10.3743 24.016C10.4916 24.016 10.5876 24.0507 10.6623 24.12C10.7369 24.184 10.7743 24.28 10.7743 24.408V27.656C10.7743 27.784 10.7369 27.88 10.6623 27.944C10.5876 28.008 10.4916 28.04 10.3743 28.04ZM10.3743 23.232C10.2196 23.232 10.0969 23.1893 10.0063 23.104C9.91558 23.0187 9.87025 22.9067 9.87025 22.768C9.87025 22.6293 9.91558 22.52 10.0063 22.44C10.0969 22.3547 10.2196 22.312 10.3743 22.312C10.5236 22.312 10.6436 22.3547 10.7343 22.44C10.8303 22.52 10.8783 22.6293 10.8783 22.768C10.8783 22.9067 10.8329 23.0187 10.7423 23.104C10.6516 23.1893 10.5289 23.232 10.3743 23.232ZM13.9251 27.424C14.0425 27.4347 14.1251 27.4667 14.1731 27.52C14.2265 27.568 14.2531 27.6373 14.2531 27.728C14.2531 27.8347 14.2105 27.9173 14.1251 27.976C14.0451 28.0293 13.9251 28.0507 13.7651 28.04L13.5491 28.024C13.1171 27.992 12.7945 27.8613 12.5811 27.632C12.3678 27.3973 12.2611 27.0533 12.2611 26.6V24.72H11.7811C11.5465 24.72 11.4291 24.616 11.4291 24.408C11.4291 24.312 11.4585 24.2373 11.5171 24.184C11.5811 24.1253 11.6691 24.096 11.7811 24.096H12.2611V23.272C12.2611 23.1493 12.2958 23.0533 12.3651 22.984C12.4398 22.9147 12.5385 22.88 12.6611 22.88C12.7838 22.88 12.8825 22.9147 12.9571 22.984C13.0318 23.0533 13.0691 23.1493 13.0691 23.272V24.096H13.8611C13.9731 24.096 14.0585 24.1253 14.1171 24.184C14.1811 24.2373 14.2131 24.312 14.2131 24.408C14.2131 24.5093 14.1811 24.5867 14.1171 24.64C14.0585 24.6933 13.9731 24.72 13.8611 24.72H13.0691V26.656C13.0691 26.9067 13.1198 27.0907 13.2211 27.208C13.3278 27.3253 13.4878 27.392 13.7011 27.408L13.9251 27.424ZM16.4734 24C16.9908 24 17.3748 24.1307 17.6254 24.392C17.8814 24.6533 18.0094 25.0507 18.0094 25.584V27.656C18.0094 27.7787 17.9748 27.8747 17.9054 27.944C17.8361 28.008 17.7401 28.04 17.6174 28.04C17.5001 28.04 17.4068 28.0053 17.3374 27.936C17.2681 27.8667 17.2334 27.7733 17.2334 27.656V27.36C17.1321 27.584 16.9801 27.7573 16.7774 27.88C16.5801 27.9973 16.3481 28.056 16.0814 28.056C15.8254 28.056 15.5908 28.0053 15.3774 27.904C15.1694 27.7973 15.0041 27.6533 14.8814 27.472C14.7588 27.2907 14.6974 27.0853 14.6974 26.856C14.6921 26.568 14.7641 26.344 14.9134 26.184C15.0628 26.0187 15.3054 25.9013 15.6414 25.832C15.9774 25.7573 16.4441 25.72 17.0414 25.72H17.2254V25.488C17.2254 25.1893 17.1641 24.9733 17.0414 24.84C16.9188 24.7067 16.7214 24.64 16.4494 24.64C16.2628 24.64 16.0868 24.664 15.9214 24.712C15.7561 24.76 15.5748 24.8293 15.3774 24.92C15.2334 25 15.1321 25.04 15.0734 25.04C14.9934 25.04 14.9268 25.0107 14.8734 24.952C14.8254 24.8933 14.8014 24.8187 14.8014 24.728C14.8014 24.648 14.8228 24.5787 14.8654 24.52C14.9134 24.456 14.9881 24.3947 15.0894 24.336C15.2761 24.2347 15.4948 24.1547 15.7454 24.096C15.9961 24.032 16.2388 24 16.4734 24ZM16.2254 27.456C16.5188 27.456 16.7588 27.3573 16.9454 27.16C17.1321 26.9573 17.2254 26.6987 17.2254 26.384V26.176H17.0814C16.6654 26.176 16.3454 26.1947 16.1214 26.232C15.8974 26.2693 15.7374 26.3333 15.6414 26.424C15.5454 26.5093 15.4974 26.6347 15.4974 26.8C15.4974 26.992 15.5668 27.1493 15.7054 27.272C15.8441 27.3947 16.0174 27.456 16.2254 27.456ZM21.1627 24.016C21.4187 24 21.5467 24.1093 21.5467 24.344C21.5467 24.4613 21.5174 24.5493 21.4587 24.608C21.4 24.6667 21.2987 24.7013 21.1547 24.712L20.9147 24.736C20.5787 24.768 20.328 24.8853 20.1627 25.088C20.0027 25.2907 19.9227 25.536 19.9227 25.824V27.656C19.9227 27.784 19.8854 27.88 19.8107 27.944C19.736 28.008 19.64 28.04 19.5227 28.04C19.4054 28.04 19.3067 28.008 19.2267 27.944C19.152 27.88 19.1147 27.784 19.1147 27.656V24.4C19.1147 24.2773 19.152 24.184 19.2267 24.12C19.3067 24.0507 19.4054 24.016 19.5227 24.016C19.6294 24.016 19.7174 24.0507 19.7867 24.12C19.8614 24.184 19.8987 24.2747 19.8987 24.392V24.776C20.0054 24.5413 20.16 24.3627 20.3627 24.24C20.5654 24.1173 20.7947 24.0453 21.0507 24.024L21.1627 24.016Z" fill="#747488"/>
</svg>
