<svg width="40" height="40" viewBox="0 0 40 40" fill="none" xmlns="http://www.w3.org/2000/svg">
<path d="M0 10C0 4.47715 4.47715 0 10 0H30C35.5228 0 40 4.47715 40 10V30C40 35.5228 35.5228 40 30 40H10C4.47715 40 0 35.5228 0 30V10Z" fill="white"/>
<path d="M9.4541 12.8691H13.0905" stroke="#DA0175" stroke-width="1.5" stroke-linecap="round" stroke-linejoin="round"/>
<path d="M9.4541 27.4785H13.0905" stroke="#DA0175" stroke-width="1.5" stroke-linecap="round" stroke-linejoin="round"/>
<path d="M21.0908 12.8691H30.5454" stroke="#DA0175" stroke-width="1.5" stroke-linecap="round" stroke-linejoin="round"/>
<path d="M21.0908 27.4785H30.5454" stroke="#DA0175" stroke-width="1.5" stroke-linecap="round" stroke-linejoin="round"/>
<path d="M9.4541 20.1738H20.3632" stroke="#DA0175" stroke-width="1.5" stroke-linecap="round" stroke-linejoin="round"/>
<path d="M28.3633 20.1738H30.5451" stroke="#DA0175" stroke-width="1.5" stroke-linecap="round" stroke-linejoin="round"/>
<path d="M17.0911 16.0001C18.8986 16.0001 20.3638 14.5986 20.3638 12.8697C20.3638 11.1408 18.8986 9.73926 17.0911 9.73926C15.2836 9.73926 13.8184 11.1408 13.8184 12.8697C13.8184 14.5986 15.2836 16.0001 17.0911 16.0001Z" stroke="#DA0175" stroke-width="1.5" stroke-linecap="round" stroke-linejoin="round"/>
<path d="M17.0911 30.6085C18.8986 30.6085 20.3638 29.207 20.3638 27.4781C20.3638 25.7492 18.8986 24.3477 17.0911 24.3477C15.2836 24.3477 13.8184 25.7492 13.8184 27.4781C13.8184 29.207 15.2836 30.6085 17.0911 30.6085Z" stroke="#DA0175" stroke-width="1.5" stroke-linecap="round" stroke-linejoin="round"/>
<path d="M24.3635 23.3038C26.171 23.3038 27.6363 21.9023 27.6363 20.1734C27.6363 18.4445 26.171 17.043 24.3635 17.043C22.5561 17.043 21.0908 18.4445 21.0908 20.1734C21.0908 21.9023 22.5561 23.3038 24.3635 23.3038Z" stroke="#DA0175" stroke-width="1.5" stroke-linecap="round" stroke-linejoin="round"/>
</svg>
