<svg width="24" height="35" viewBox="0 0 24 35" fill="none" xmlns="http://www.w3.org/2000/svg">
<path d="M15.75 8.75L19.25 12L15.75 15.25" stroke="#747488" stroke-width="1.5" stroke-linecap="round" stroke-linejoin="round"/>
<path d="M19 12H10.75" stroke="#747488" stroke-width="1.5" stroke-linecap="round" stroke-linejoin="round"/>
<path d="M15.25 4.75H6.75C5.64543 4.75 4.75 5.64543 4.75 6.75V17.25C4.75 18.3546 5.64543 19.25 6.75 19.25H15.25" stroke="#747488" stroke-width="1.5" stroke-linecap="round" stroke-linejoin="round"/>
<path d="M7.02 32.064C6.61467 32.064 6.228 32.008 5.86 31.896C5.49733 31.784 5.20667 31.6293 4.988 31.432C4.88667 31.3467 4.836 31.2373 4.836 31.104C4.836 31.008 4.86267 30.928 4.916 30.864C4.96933 30.7947 5.03333 30.76 5.108 30.76C5.18267 30.76 5.27333 30.7947 5.38 30.864C5.85467 31.216 6.396 31.392 7.004 31.392C7.43067 31.392 7.75867 31.312 7.988 31.152C8.21733 30.992 8.332 30.7627 8.332 30.464C8.332 30.2293 8.22533 30.0533 8.012 29.936C7.79867 29.8187 7.45733 29.7067 6.988 29.6C6.54 29.504 6.172 29.3947 5.884 29.272C5.596 29.1493 5.36933 28.984 5.204 28.776C5.044 28.5627 4.964 28.2933 4.964 27.968C4.964 27.6427 5.052 27.3547 5.228 27.104C5.40933 26.848 5.66 26.6507 5.98 26.512C6.3 26.368 6.66533 26.296 7.076 26.296C7.45467 26.296 7.804 26.3493 8.124 26.456C8.444 26.5627 8.716 26.72 8.94 26.928C9.04667 27.0187 9.1 27.128 9.1 27.256C9.1 27.3467 9.07067 27.4267 9.012 27.496C8.95867 27.5653 8.89467 27.6 8.82 27.6C8.75067 27.6 8.66267 27.5653 8.556 27.496C8.31067 27.3093 8.07867 27.176 7.86 27.096C7.64667 27.0107 7.388 26.968 7.084 26.968C6.67333 26.968 6.35333 27.0533 6.124 27.224C5.89467 27.3893 5.78 27.6213 5.78 27.92C5.78 28.176 5.88133 28.3707 6.084 28.504C6.28667 28.632 6.612 28.7493 7.06 28.856C7.52933 28.9627 7.908 29.0747 8.196 29.192C8.48933 29.304 8.72133 29.4613 8.892 29.664C9.068 29.8613 9.156 30.1173 9.156 30.432C9.156 30.752 9.06533 31.0373 8.884 31.288C8.708 31.5333 8.45733 31.7253 8.132 31.864C7.812 31.9973 7.44133 32.064 7.02 32.064ZM11.7156 28C12.233 28 12.617 28.1307 12.8676 28.392C13.1236 28.6533 13.2516 29.0507 13.2516 29.584V31.656C13.2516 31.7787 13.217 31.8747 13.1476 31.944C13.0783 32.008 12.9823 32.04 12.8596 32.04C12.7423 32.04 12.649 32.0053 12.5796 31.936C12.5103 31.8667 12.4756 31.7733 12.4756 31.656V31.36C12.3743 31.584 12.2223 31.7573 12.0196 31.88C11.8223 31.9973 11.5903 32.056 11.3236 32.056C11.0676 32.056 10.833 32.0053 10.6196 31.904C10.4116 31.7973 10.2463 31.6533 10.1236 31.472C10.001 31.2907 9.93963 31.0853 9.93963 30.856C9.93429 30.568 10.0063 30.344 10.1556 30.184C10.305 30.0187 10.5476 29.9013 10.8836 29.832C11.2196 29.7573 11.6863 29.72 12.2836 29.72H12.4676V29.488C12.4676 29.1893 12.4063 28.9733 12.2836 28.84C12.161 28.7067 11.9636 28.64 11.6916 28.64C11.505 28.64 11.329 28.664 11.1636 28.712C10.9983 28.76 10.817 28.8293 10.6196 28.92C10.4756 29 10.3743 29.04 10.3156 29.04C10.2356 29.04 10.169 29.0107 10.1156 28.952C10.0676 28.8933 10.0436 28.8187 10.0436 28.728C10.0436 28.648 10.065 28.5787 10.1076 28.52C10.1556 28.456 10.2303 28.3947 10.3316 28.336C10.5183 28.2347 10.737 28.1547 10.9876 28.096C11.2383 28.032 11.481 28 11.7156 28ZM11.4676 31.456C11.761 31.456 12.001 31.3573 12.1876 31.16C12.3743 30.9573 12.4676 30.6987 12.4676 30.384V30.176H12.3236C11.9076 30.176 11.5876 30.1947 11.3636 30.232C11.1396 30.2693 10.9796 30.3333 10.8836 30.424C10.7876 30.5093 10.7396 30.6347 10.7396 30.8C10.7396 30.992 10.809 31.1493 10.9476 31.272C11.0863 31.3947 11.2596 31.456 11.4676 31.456ZM14.7649 32.04C14.6475 32.04 14.5489 32.008 14.4689 31.944C14.3942 31.88 14.3569 31.784 14.3569 31.656V28.408C14.3569 28.28 14.3942 28.184 14.4689 28.12C14.5489 28.0507 14.6475 28.016 14.7649 28.016C14.8822 28.016 14.9782 28.0507 15.0529 28.12C15.1275 28.184 15.1649 28.28 15.1649 28.408V31.656C15.1649 31.784 15.1275 31.88 15.0529 31.944C14.9782 32.008 14.8822 32.04 14.7649 32.04ZM14.7649 27.232C14.6102 27.232 14.4875 27.1893 14.3969 27.104C14.3062 27.0187 14.2609 26.9067 14.2609 26.768C14.2609 26.6293 14.3062 26.52 14.3969 26.44C14.4875 26.3547 14.6102 26.312 14.7649 26.312C14.9142 26.312 15.0342 26.3547 15.1249 26.44C15.2209 26.52 15.2689 26.6293 15.2689 26.768C15.2689 26.9067 15.2235 27.0187 15.1329 27.104C15.0422 27.1893 14.9195 27.232 14.7649 27.232ZM18.3424 28.016C18.5984 28 18.7264 28.1093 18.7264 28.344C18.7264 28.4613 18.697 28.5493 18.6384 28.608C18.5797 28.6667 18.4784 28.7013 18.3344 28.712L18.0944 28.736C17.7584 28.768 17.5077 28.8853 17.3424 29.088C17.1824 29.2907 17.1024 29.536 17.1024 29.824V31.656C17.1024 31.784 17.065 31.88 16.9904 31.944C16.9157 32.008 16.8197 32.04 16.7024 32.04C16.585 32.04 16.4864 32.008 16.4064 31.944C16.3317 31.88 16.2944 31.784 16.2944 31.656V28.4C16.2944 28.2773 16.3317 28.184 16.4064 28.12C16.4864 28.0507 16.585 28.016 16.7024 28.016C16.809 28.016 16.897 28.0507 16.9664 28.12C17.041 28.184 17.0784 28.2747 17.0784 28.392V28.776C17.185 28.5413 17.3397 28.3627 17.5424 28.24C17.745 28.1173 17.9744 28.0453 18.2304 28.024L18.3424 28.016Z" fill="#747488"/>
</svg>
